<svg xmlns="http://www.w3.org/2000/svg" viewBox="0 0 220 220" fill="none">
  <g stroke="#F1BA20" stroke-width="8" stroke-linecap="round" stroke-linejoin="round">
    <path d="M116 175V93"/>
    <path d="M116 95c0-22 10-40 31-47-7 14-7 28-1 39-11 2-21 3-30 8Z"/>
    <path d="M116 95c0-18-10-35-31-42 7 13 8 25 2 37 11 1 20 3 29 5Z"/>
    <path d="M116 127c0-18 12-31 30-36-4 10-4 20 0 29-11 1-20 3-30 7Z"/>
    <path d="M116 127c0-17-12-30-29-35 4 10 4 20 0 29 11 1 19 3 29 6Z"/>
    <path d="M95 175h42"/>
    <path d="M145 153l24 22"/>
    <path d="M155 161l14-2"/>
  </g>
</svg>
