<svg width="120" height="132" viewBox="0 0 120 132" fill="none" xmlns="http://www.w3.org/2000/svg">
  <path d="M40 10H80L101 30V102L80 122H40L19 66L40 10Z" stroke="#F1BA20" stroke-width="4" stroke-linejoin="round"/>
  <path d="M34 68H86" stroke="#F1BA20" stroke-width="4" stroke-linecap="round"/>
  <path d="M41 84V52H51V84" stroke="#F1BA20" stroke-width="4" stroke-linejoin="round"/>
  <path d="M53 78V44H65V78" stroke="#F1BA20" stroke-width="4" stroke-linejoin="round"/>
  <path d="M67 84V58H80V84" stroke="#F1BA20" stroke-width="4" stroke-linejoin="round"/>
  <path d="M46 58H46.1" stroke="#F1BA20" stroke-width="4" stroke-linecap="round"/>
  <path d="M46 66H46.1" stroke="#F1BA20" stroke-width="4" stroke-linecap="round"/>
  <path d="M46 74H46.1" stroke="#F1BA20" stroke-width="4" stroke-linecap="round"/>
  <path d="M59 50H59.1" stroke="#F1BA20" stroke-width="4" stroke-linecap="round"/>
  <path d="M59 58H59.1" stroke="#F1BA20" stroke-width="4" stroke-linecap="round"/>
  <path d="M59 66H59.1" stroke="#F1BA20" stroke-width="4" stroke-linecap="round"/>
  <path d="M74 64H74.1" stroke="#F1BA20" stroke-width="4" stroke-linecap="round"/>
  <path d="M74 72H74.1" stroke="#F1BA20" stroke-width="4" stroke-linecap="round"/>
  <path d="M27 79L35 71L41 77" stroke="#F1BA20" stroke-width="4" stroke-linecap="round" stroke-linejoin="round"/>
</svg>
